<?xml version="1.0" encoding="utf-8"?>
<!-- Generator: Adobe Illustrator 18.0.0, SVG Export Plug-In . SVG Version: 6.00 Build 0)  -->
<!DOCTYPE svg PUBLIC "-//W3C//DTD SVG 1.1//EN" "http://www.w3.org/Graphics/SVG/1.1/DTD/svg11.dtd">
<svg version="1.1" id="Layer_1" xmlns="http://www.w3.org/2000/svg" xmlns:xlink="http://www.w3.org/1999/xlink" x="0px" y="0px"
	 width="46px" height="46px" viewBox="0 0 46 46" style="enable-background:new 0 0 46 46;" xml:space="preserve">
<style type="text/css">
	.st0{fill:#1D9AD5;}
	.st1{fill:#FFFFFF;}
</style>
<g>
	<g>
		<circle class="st0" cx="23" cy="23" r="23"/>
	</g>
	<g>
		<g>
			<path class="st1" d="M37.8,30.3l-3.1-2l2.5-1.6c0.1-0.1,0.3-0.2,0.4-0.3c0.3-0.5,0.1-1.1-0.4-1.3c-0.3-0.2-0.6-0.2-0.9,0
				l-4.2,1.7L26.6,23l5.5-3.6l4.2,1.7c0.3,0.1,0.6,0.1,0.9,0c0.5-0.3,0.6-0.9,0.4-1.3c-0.1-0.2-0.2-0.3-0.4-0.3l-2.5-1.6l3.1-2
				c0.5-0.3,0.7-0.9,0.4-1.4c-0.3-0.5-0.9-0.7-1.4-0.4l-3.3,1.7l-0.2-3c0-0.2,0-0.3-0.1-0.5c-0.3-0.5-0.9-0.6-1.3-0.4
				c-0.3,0.2-0.4,0.4-0.5,0.7L30.7,17l-5.9,2.9l-0.4-6.6l3.5-2.8c0.2-0.2,0.4-0.4,0.4-0.8c0-0.5-0.4-1-1-1c-0.2,0-0.3,0.1-0.5,0.1
				l-2.6,1.3L24,6.6c0-0.6-0.5-1-1-1c-0.6,0-1,0.5-1,1l-0.2,3.7l-2.7-1.3c-0.1-0.1-0.3-0.1-0.5-0.1c-0.5,0-1,0.4-1,1
				c0,0.3,0.2,0.6,0.4,0.8l3.6,2.8l-0.4,6.6l-5.9-3l-0.7-4.4c0-0.3-0.2-0.6-0.5-0.7c-0.5-0.3-1.1-0.1-1.3,0.4
				c-0.1,0.2-0.1,0.3-0.1,0.5l-0.2,2.9l-3.3-1.7c-0.5-0.3-1.1-0.1-1.4,0.4c-0.3,0.5-0.1,1.1,0.4,1.4l3.1,2l-2.5,1.6
				c-0.1,0.1-0.3,0.2-0.4,0.3c-0.3,0.5-0.1,1.1,0.4,1.3c0.3,0.2,0.6,0.2,0.9,0l4.2-1.7l5.5,3.6l-5.5,3.6L9.7,25
				c-0.3-0.1-0.6-0.1-0.9,0c-0.5,0.3-0.6,0.9-0.4,1.3c0.1,0.2,0.2,0.3,0.4,0.3l2.5,1.6l-3.1,2c-0.5,0.3-0.7,0.9-0.4,1.4
				c0.3,0.5,0.9,0.7,1.4,0.4l3.3-1.7l0.2,3c0,0.2,0,0.3,0.1,0.5c0.3,0.5,0.9,0.6,1.3,0.4c0.3-0.2,0.4-0.4,0.5-0.7l0.7-4.5l5.9-2.9
				l0.4,6.6L18,35.5c-0.2,0.2-0.4,0.4-0.4,0.8c0,0.5,0.4,1,1,1c0.2,0,0.3-0.1,0.5-0.1l2.6-1.3l0.2,3.7c0,0.6,0.5,1,1,1
				c0.6,0,1-0.5,1-1l0.2-3.7l2.7,1.3c0.1,0.1,0.3,0.1,0.5,0.1c0.5,0,1-0.4,1-1c0-0.3-0.2-0.6-0.4-0.8l-3.6-2.8l0.4-6.6l5.9,3
				l0.7,4.4c0,0.3,0.2,0.6,0.5,0.7c0.5,0.3,1.1,0.1,1.3-0.4c0.1-0.2,0.1-0.3,0.1-0.5l0.2-2.9l3.3,1.7c0.5,0.3,1.1,0.1,1.4-0.4
				C38.5,31.2,38.3,30.6,37.8,30.3z"/>
		</g>
	</g>
</g>
</svg>
