<?xml version="1.0" encoding="utf-8"?>
<!-- Generator: Adobe Illustrator 18.0.0, SVG Export Plug-In . SVG Version: 6.00 Build 0)  -->
<!DOCTYPE svg PUBLIC "-//W3C//DTD SVG 1.1//EN" "http://www.w3.org/Graphics/SVG/1.1/DTD/svg11.dtd">
<svg version="1.1" id="Layer_1" xmlns="http://www.w3.org/2000/svg" xmlns:xlink="http://www.w3.org/1999/xlink" x="0px" y="0px"
	 width="46px" height="46px" viewBox="0 0 46 46" style="enable-background:new 0 0 46 46;" xml:space="preserve">
<style type="text/css">
	.st0{fill-rule:evenodd;clip-rule:evenodd;fill:#58a528;}
	.st1{fill:#FFFFFF;}
</style>
<g>
	<path class="st0" d="M31.8,1.7c11.7,4.8,17.3,18.3,12.5,30c-4.8,11.7-18.3,17.3-30,12.5C2.5,39.4-3.1,26,1.7,14.2S20-3.1,31.8,1.7z
		"/>
	<path class="st1" d="M32.9,12.7c-0.3,0-0.6,0.2-0.9,0.4c0,0-10.3,10.5-12.5,12.9h0c-0.3,0.3-0.7,0.3-1,0.1
		c-1.2-0.8-3.7-2.6-3.8-2.7c-0.3-0.2-0.6-0.3-1-0.3c-0.9,0-1.7,0.7-1.7,1.7c0,0.4,0.1,0.7,0.3,0.9c0,0,4.6,6.4,4.6,6.4
		c0.5,0.8,1.5,1.3,2.5,1.3c1.1,0,2-0.5,2.5-1.4c0,0,11.8-17.2,11.8-17.3c0.2-0.3,0.3-0.5,0.3-0.8C34,13.2,33.5,12.7,32.9,12.7z"/>
</g>
</svg>
